{
  "title": "Shaun the Sheep Movie (2015)WEB-DL XVID AC3 MURD3R",
  "uid": 11871221,
  "size": 718934295,
  "categoryP": "video",
  "categoryS": "movies",
  "magnet": "?xt=urn:btih:9c5477dc0914f43ecdde5510902691d07ca4a377&amp;dn=Shaun+the+Sheep+Movie+%282015%29WEB-DL+XVID+AC3+MURD3R&amp;tr=udp%3A%2F%2Ftracker.openbittorrent.com%3A80&amp;tr=udp%3A%2F%2Fopen.demonii.com%3A1337&amp;tr=udp%3A%2F%2Ftracker.coppersurfer.tk%3A6969&amp;tr=udp%3A%2F%2Fexodus.desync.com%3A6969",
  "seeders": 39,
  "leechers": 7,
  "uploader": ".BONE.",
  "files": 10,
  "time": 1430424617,
  "description": "Shaun the Sheep Movie (2015)WEB-DL XVID AC3 MURD3R.avi\n\nFormat : AVI\nFormat/Info : Audio Video Interleave\nFile size : 682 MiB\nDuration : 1h 21mn\nOverall bit rate : 1 170 Kbps\n\nVideo\nID : 0\nFormat : MPEG-4 Visual\nFormat profile : Advanced Simple@L5\nFormat settings, BVOP : 1\nFormat settings, QPel : No\nFormat settings, GMC : No warppoints\nFormat settings, Matrix : Custom\nCodec ID : XVID\nCodec ID/Hint : XviD\nDuration : 1h 21mn\nBit rate : 1 062 Kbps\nWidth : 688 pixels\nHeight : 368 pixels\nDisplay aspect ratio : 1.85:1\nFrame rate : 25.000 fps\nColor space : YUV\nChroma subsampling : 4:2:0\nBit depth : 8 bits\nScan type : Progressive\nCompression mode : Lossy\nBits/(Pixel*Frame) : 0.168\nStream size : 620 MiB (91%)\nWriting library : XviD 73\n\nAudio\nID : 1\nFormat : AC-3\nFormat/Info : Audio Coding 3\nMode extension : CM (complete main)\nFormat settings, Endianness : Big\nCodec ID : 2000\nDuration : 1h 21mn\nBit rate mode : Constant\nBit rate : 96.0 Kbps\nChannel(s) : 2 channels\nChannel positions : Front: L R\nSampling rate : 48.0 KHz\nBit depth : 16 bits\nCompression mode : Lossy\nStream size : 56.0 MiB (8%)\nAlignment : Aligned on interleaves\nInterleave, duration : 32 ms (0.80 video frame)\n &lt;a href=&quot;\nhttp://s20.postimage.org/aljj9x919/MURD3_Rvlcsnap_2015_04_30_18h13m01s185.png&quot; rel=&quot;nofollow&quot; target=&quot;_NEW&quot;&gt;\nhttp://s20.postimage.org/aljj9x919/MURD3_Rvlcsnap_2015_04_30_18h13m01s185.png&lt;/a&gt; &lt;a href=&quot;\nhttp://s20.postimage.org/qxtkznnct/MURD3_Rvlcsnap_2015_04_30_18h12m40s233.png&quot; rel=&quot;nofollow&quot; target=&quot;_NEW&quot;&gt;\nhttp://s20.postimage.org/qxtkznnct/MURD3_Rvlcsnap_2015_04_30_18h12m40s233.png&lt;/a&gt; &lt;a href=&quot;\nhttp://s20.postimage.org/d45qhio71/MURD3_Rvlcsnap_2015_04_30_18h13m23s147.png&quot; rel=&quot;nofollow&quot; target=&quot;_NEW&quot;&gt;\nhttp://s20.postimage.org/d45qhio71/MURD3_Rvlcsnap_2015_04_30_18h13m23s147.png&lt;/a&gt; &lt;a href=&quot;\nhttp://s20.postimage.org/4bortu325/MURD3_Rvlcsnap_2015_04_30_18h16m51s177.png&quot; rel=&quot;nofollow&quot; target=&quot;_NEW&quot;&gt;\nhttp://s20.postimage.org/4bortu325/MURD3_Rvlcsnap_2015_04_30_18h16m51s177.png&lt;/a&gt;",
  "parsed": {
    "xt": "urn:btih:9c5477dc0914f43ecdde5510902691d07ca4a377",
    "dn": "Shaun the Sheep Movie (2015)WEB-DL XVID AC3 MURD3R",
    "tr": [
      "udp://exodus.desync.com:6969",
      "udp://open.demonii.com:1337",
      "udp://tracker.coppersurfer.tk:6969",
      "udp://tracker.openbittorrent.com:80"
    ],
    "infoHash": "9c5477dc0914f43ecdde5510902691d07ca4a377",
    "infoHashBuffer": {
      "type": "Buffer",
      "data": [
        156,
        84,
        119,
        220,
        9,
        20,
        244,
        62,
        205,
        222,
        85,
        16,
        144,
        38,
        145,
        208,
        124,
        164,
        163,
        119
      ]
    },
    "name": "Shaun the Sheep Movie (2015)WEB-DL XVID AC3 MURD3R",
    "announce": [
      "udp://exodus.desync.com:6969",
      "udp://open.demonii.com:1337",
      "udp://tracker.coppersurfer.tk:6969",
      "udp://tracker.openbittorrent.com:80"
    ],
    "urlList": []
  },
  "previous": 10,
  "peers": 18,
  "last_updated": "2016-12-27T08:15:19.635Z"
}